<?xml version="1.0" encoding="UTF-8"?>
<svg id="Layer_2" data-name="Layer 2" xmlns="http://www.w3.org/2000/svg" viewBox="0 0 241.62 241.62">
  <defs>
    <style>
      .cls-1 {
        fill: #fff;
      }
    </style>
  </defs>
  <g id="OBJECTS">
    <g>
      <path class="cls-1" d="M189.26,241.62H52.36c-28.87,0-52.36-23.49-52.36-52.36V52.36C0,23.49,23.49,0,52.36,0h136.9c28.87,0,52.36,23.49,52.36,52.36v136.9c0,28.87-23.49,52.36-52.36,52.36ZM52.36,20c-17.84,0-32.36,14.52-32.36,32.36v136.9c0,17.84,14.52,32.36,32.36,32.36h136.9c17.84,0,32.36-14.52,32.36-32.36V52.36c0-17.84-14.52-32.36-32.36-32.36H52.36Z"/>
      <circle class="cls-1" cx="174.17" cy="66.88" r="29.36"/>
      <path class="cls-1" d="M70.99,46.45l-1.2,1.23-1.42-1.38c-6.43-6.23-16.69-6.07-22.92.36h0c-6.23,6.43-6.07,16.69.36,22.92l22.01,21.32c1.49,1.44,3.86,1.4,5.31-.08l19.94-20.58,1.2-1.23c6.23-6.43,6.07-16.69-.36-22.92h0c-6.43-6.23-16.69-6.07-22.92.36Z"/>
      <path class="cls-1" d="M183.38,121.98c0,34.5-28.07,62.57-62.57,62.57s-62.58-28.07-62.58-62.57h-15.51c0,43.06,35.03,78.08,78.09,78.08s78.08-35.02,78.08-78.08h-15.51Z"/>
    </g>
  </g>
</svg>