<?xml version="1.0" encoding="UTF-8"?>
<svg id="Layer_2" data-name="Layer 2" xmlns="http://www.w3.org/2000/svg" viewBox="0 0 1356.42 1317.41">
  <defs>
    <style>
      .cls-1 {
        fill: #dc3f1c;
      }
    </style>
  </defs>
  <g id="Layer_1-2" data-name="Layer 1">
    <g>
      <path class="cls-1" d="M1175.11.21c-3.5.23-33.5,4.36-66.8,9.06-33.19,4.7-78.35,11.12-100.19,14.22-21.84,3.1-60.01,8.48-84.82,12.04-91.29,13.07-285.42,40.7-377.98,53.88-80.16,11.35-159.14,22.59-209.4,29.81-19.51,2.75-61.28,8.71-92.77,13.18-109.52,15.48-111.43,15.82-130.73,23.62-24.07,9.74-41.67,22.24-61.28,43.34C20.39,232.72,4.17,271.35.88,319.51.03,330.74-.18,425.33.14,622.52c.32,253.37.53,287.65,2.01,295.79,7.74,43.22,23.01,75.09,49.73,103.76,23.33,25.11,53.54,42.65,87.68,50.79l10.14,2.37c.1.02.2.03.3.03l273.61.34,272.45.34c.78,0,1.41.69,1.42,1.53l.21,120,.31,118.41c0,1.27,1.36,1.99,2.29,1.21l22.64-18.96c13.68-11.46,32.13-26.83,40.82-34.16,8.8-7.34,32.97-27.63,53.75-45.06,20.89-17.43,54.82-45.86,75.28-63.06,20.57-17.2,50.26-42.08,66.05-55.37l28.25-23.64c.25-.21.55-.32.86-.32l109.79-.68c109.52-.57,110.37-.57,120.87-3.21,23.64-5.73,43.26-14.67,62.02-28.2,37.75-27.4,63.19-68.33,73.37-118.66l2.41-11.88c.02-.11.03-.22.03-.33v-375.3c0-359.07-.11-375.93-1.91-385.79-14.84-78.88-70.61-137.35-143.35-150.07-10.71-1.83-26.4-2.87-36.05-2.18ZM1149.47,118.84c1.3,2.5.8,66.5-1.1,140.3-.6,20.9-1,58-1.1,82.5,0,42.6.6,54.9,3,57.3.7.7,6.7.6,17.6-.3,18.3-1.4,18.6-1.3,21.2,4.7,1,2.5,1.3,10.7,1.3,35.5,0,17.8-.3,33.9-.6,35.9l-.45,2.79c-.09.55-.51.98-1.05,1.1l-9.3,1.91c-19.6,4-23.4,4.3-60.6,4.8-41.7.6-41.8.6-46-6.2-2-3.2-2-3.6,2-134.1,2.2-72,4.4-147.8,5-168.4s1.5-39.8,2.1-42.7c1.4-7,5.8-12.9,10.6-14.3,2.1-.5,14.2-1.4,26.8-1.8,12.7-.5,24.4-1,26.2-1,2.4-.2,3.5.4,4.4,2ZM975.87,143.04c6.4,2.9,11,8.2,15.2,17.3,5.5,12,5.6,12.5,26.7,120.3,4.7,23.9,15.3,78.1,23.6,120.3,16.8,85.4,16.2,80.4,9.4,87.3-4.8,4.7-9.5,6.9-19.4,8.7-13.1,2.5-38.8,4.1-43.7,2.8-11.5-3.1-15.7-18.3-17.9-63.9-.7-14-.7-14.2-3.1-14.8-2.7-.7-5.5-.5-31.1,2.8l-16.32,2.09c-.53.07-.97.45-1.12.97l-.76,2.74c-.6,2-1.9,12-3,22.1-3.3,30.5-5.3,37.9-11.8,44.6-7.9,8.1-16.9,10.3-42,10.3-18.9,0-22.2-.9-24.9-6.4-2.1-4.4-3,.6,13.7-72.6,7.2-31.6,16-70.3,19.5-86s11.8-52.6,18.5-82c6.6-29.4,13.6-60.7,15.6-69.5,2.3-10.8,4.6-18.3,7-23.2,6.2-12.8,17.3-20.4,35.4-24.2,13.5-2.8,24.1-2.7,30.5.3ZM806.57,157.64c4.4,1.3,9.3,6.6,10.8,11.7,2.1,7.4,3.2,76.9,2.7,182.3-.4,100.7-.9,118.8-3.7,140.5-.8,6.3-1.2,7.3-4.6,10.2-11.8,10.3-51.6,12.2-61,2.8l-2.01-2.01c-.25-.25-.39-.59-.39-.95V173.4c0-.3.1-.59.28-.82l1.82-2.34c2.7-3.4,8-6.1,17.1-8.6,16.5-4.5,31.6-6,39-4ZM714.37,168.64c6.5,1.4,15.2,4,16.2,4.9,1.6,1.4-3.3,49.4-6.7,66.9-.9,4.2-2.3,9.7-3.1,12l-1.27,3.49c-.2.54-.72.9-1.3.88l-20.73-.67c-24.6-.8-31.8.1-43.1,5.6-10.2,5-22.2,17.7-28.7,30.4-9.5,18.6-13.5,36.6-13.4,60,.1,29.6,6.9,50.9,21.3,66.1,10.7,11.2,22.8,16.5,37.8,16.6,10.5.1,20.3-2.5,31.5-8.2l7.78-4.02c.77-.4,1.71.03,1.91.88l1.2,5.04c.8,3.6,5.1,21.4,9.4,39.4l7.68,31.97c.13.56-.1,1.14-.58,1.44l-3.29,2.09c-2.3,1.4-7.9,4.3-12.4,6.5-27.1,12.6-54,15.6-80.6,8.7-28.7-7.3-55.7-29.9-71.9-60-28.8-53.5-28.7-141.1.2-206,12.6-28.3,31.2-51.6,52.1-65.6,18.3-12.1,34-17,64-19.8,7.7-.7,30.2.2,36,1.4ZM439.37,200.64c32,4.2,57.9,27.4,73.1,65.7,4.3,10.8,9.4,31.3,11.6,46.8,2.5,18,2.5,62.2-.1,81-10.8,78.9-44.7,131.4-91.1,141.2-9.1,1.9-28.9,1.9-38.1-.1-37.5-8-62.8-35.7-76.8-84.1-6.7-23.3-9.7-47.9-9.7-79.8-.1-32.6,4.2-58.4,13.6-82.8,18.6-48.3,56.7-82.5,97.7-87.8,8.8-1.2,11.3-1.2,19.8-.1ZM288.37,221.74c9.3,3.5,19,10.3,19,13.4,0,3.4-5,17.2-12.5,33.9-10.3,23.2-17.6,35.6-21.1,35.6-.8,0-6.8-2.7-13.4-6s-13-6-14.3-6c-4,0-9.1,4.2-10.5,8.5-1.9,5.5-.3,14.7,4.1,23.9,3.5,7.3,9.4,15.2,28.2,38,25.9,31.3,32.5,47,32.5,76.5-.1,47.3-16.2,82-44.8,96.9-12.9,6.8-23.3,9.3-40.2,9.9-21.4.8-47.4-3.3-52-8.2-3.5-3.7-2.8-10.3,3.9-40.5,7.2-32.5,9.4-40,12.2-42.6,3.1-2.8,10.8-2.3,22,1.4,12.6,4.2,18.8,5.3,23.1,4.1,5.1-1.3,7.3-4.3,7.1-9.3-.4-11.6-9.7-25.6-41.4-62.7-17.4-20.4-21.1-27.4-24.5-47-2.4-14-1.5-37.3,1.9-49.1,5.1-17.7,13.5-31.9,26.6-44.8,12.5-12.3,25.6-20.4,40.7-24.9,10.1-3.1,18.1-4,33.4-3.7,11.5.2,14.5.6,20,2.7ZM1027.57,582.04c12.1,2.7,11.1-.4,10.5,30.9-.4,22.6-.8,28.8-2.5,36.6-1.2,5.2-2.5,9.8-2.9,10.2-.5.5-17.2,1.8-37.3,3-16.89.92-31.17,1.85-35.36,2.18-.7.06-1.24.65-1.22,1.35.06,3.54.24,14.31.48,26.87l.57,26.66c.02.74.63,1.32,1.36,1.31l18.36-.37c22.3-.4,27.1.4,32,5.2l2.6,2.6c.26.26.4.61.39.97l-.49,29.03c-.4,30.8-1.4,38.9-5.4,43.3-2.2,2.5-15.1,2.4-27.4-.2-5.2-1.1-10.6-2-12-2h-1.29c-.73,0-1.32.58-1.34,1.31l-.57,25.89c-.4,14.9-.7,31.6-.7,37v8.46c0,.74.6,1.34,1.34,1.34h22.96c13.3-.1,28.9-.5,34.7-1,9.9-.8,10.6-.7,12.8,1.3,2,1.9,2.2,2.9,2.2,13,0,12.2-2.7,52.5-3.9,57.2-.7,2.8-1,3-6.2,3.2-3,.2-17.8,1.3-32.9,2.4-35.1,2.8-54.9,2.8-81,0-17.3-1.87-20.59-2.48-22.12-4.02-.05-.05-.1-.11-.14-.16-2.07-2.67-3.65-10.05-4.73-22.92-1.2-14.9-2-212.3-.9-249.5.8-29.9,4.6-75.9,6.9-84.5l.75-2.69c.15-.54.63-.93,1.19-.98l23.76-1.73c43.3-3.2,48.3-3.4,74.8-3.1,18.7.2,27.9.8,32.7,1.9ZM1188.07,583.24c6.7,3.2,10.8,8,15.3,17.9,6.2,13.4,6,12.4,27.6,127.5,8,42.6,19.2,102.7,25,133.5,15.3,81.3,14.1,73.4,11.7,78.1-2.6,5.1-9,9.9-15,11.4-5.5,1.3-44.5,2.6-49.8,1.6-4.8-.9-9.8-5.6-12.4-11.6-3.3-7.6-5.9-25.3-7.2-49-.59-11.51-1.33-19.15-1.96-21.47-.14-.5-.54-.86-1.04-.97-6.41-1.33-47.86.93-49.1,2.74-.8,1.3-2.1,11-4.8,34.7-1,9.6-2.6,19.8-3.5,22.7-2.5,8.4-7.1,14.3-13.9,17.8l-5.71,2.86c-.19.09-.4.14-.61.14l-17.78-.1c-24.6-.2-28.8-.8-33.2-4.8-3.1-2.8-3.5-3.7-3.5-8.2.1-2.8,2.1-14.3,4.6-25.5s18.7-83.9,36-161.5c21.4-96.6,32.2-142.9,33.9-146.8,3-6.5,10.1-13.7,16.6-17.1,14.7-7.4,37.7-9.2,48.8-3.9ZM779.87,593.54c18.7,3.9,29.8,10.5,45.6,26.8,21.4,22.2,30.2,37.8,37.5,66.6,10.4,41.1,10.8,112.8.8,157.6-6.7,29.7-18.9,54.5-36,73-21.7,23.5-46,31.5-89.9,29.7-21.6-.9-52.9-3.4-57.5-4.6-2-.5-4.9-2.3-6.4-3.9-2.5-2.6-2.9-3.9-3.9-14.3-1.7-17.7-.9-315.5.8-318.8.7-1.4,3.1-4.2,5.3-6.3l3.55-3.46c.22-.22.52-.35.83-.38l19.42-1.46c10.9-.8,24.4-1.9,29.9-2.4,15-1.3,39.4-.4,50,1.9ZM558.77,608.74l5.58.98c.69.12,1.17.75,1.1,1.45l-.38,3.87c-.3,3.6-9.1,26.3-30.7,79.1-16.6,40.7-31.3,76.5-32.5,79.5s-4.8,11.7-7.9,19.2l-5.5,13.46c-.07.16-.1.33-.1.51v49.04c-.1,62.5-1.4,83.8-5.4,88.5-2,2.4-3.2,2.7-13.2,3.4-6,.5-15.6,1.5-21.4,2.3s-14,1.7-18.2,1.9q-7.7.4-8.3-2.3c-.3-1.4-1.2-32.3-2-68.6l-1.3-65.71c0-.13-.02-.25-.06-.38l-4.04-12.82c-6.9-22.3-15.4-46.5-31.1-89-8.4-22.6-18.8-51.8-23.2-64.9l-7.8-23.12c-.18-.53-.01-1.11.42-1.46l1.98-1.61c5.4-4.7,22.9-8.3,51.3-10.4,14.4-1,17.3-.6,19.7,3.2.8,1.3,6.9,30.1,13.7,64.2l11.19,56.21c.28,1.39,2.23,1.45,2.6.09l1.71-6.3c30.8-113.5,29.6-109.7,33.8-114.9,2.1-2.7,3.4-3.1,15.2-5.2,11.1-1.9,15.4-2.2,30.4-1.9,9.6.3,20.6,1,24.4,1.7ZM635.07,608.54c5.7,2.6,8.9,7.8,10.5,17.1,1,5.8,1.3,37.9,1.3,142,0,120.1-.2,136.4-1.7,152.3-1.1,11.2-2.3,18.9-3.4,20.8-3.7,7.2-22.5,11.3-41.3,9.1-10.4-1.2-18.9-3.8-22.2-6.8-1.8-1.7-1.9-6.2-1.9-164.1v-161.55c0-.47.24-.9.64-1.14l2.66-1.61c7.7-4.8,23-7.8,39.7-7.9,9.3,0,12.3.3,15.7,1.8ZM332.77,627.64c6.4,1.4,8.7,4.5,9.6,13.3.5,4.2,1.4,38.8,2,76.9s1.7,99.9,2.4,137.3c.8,37.4,1.2,69.6,1,71.5-1.6,12.6-1.2,11.7-5.3,13.3-7.9,3.2-46.2,5.8-53.9,3.8-4.8-1.3-9-4.5-10.3-7.7-.5-1.4-1.5-36.3-2.4-77.7-.8-41.3-1.8-82.2-2.1-90.7-.7-18.2-.3-18.5-9.4,6.5-8.9,24.6-20.6,51.7-33.5,78-16,32.6-19.5,36-27.9,27.2-3.4-3.5-7.7-12.1-24.3-48.7-11.1-24.5-21.4-47-22.7-50h0c-.61-1.3-2.56-.85-2.55.58l.65,72.92c.6,78.2.6,79-1.4,83-1.2,2.2-2.9,4.7-3.9,5.6-7,6.2-21.5,8.7-41.4,7.3l-11.45-.82c-.62-.04-1.12-.5-1.22-1.11l-1.43-8.56c-1.6-9.8-1.9-14.9-4.5-97.9-2-64.4-2.9-170.3-1.6-179.9,1.8-12.5,4.6-14.6,24.8-18.7,14.6-3,32.4-3.8,36.1-1.6,3.5,1.9,10.5,12.6,17.1,25.7,5.5,11.1,11.3,24.3,28.7,66,9.9,23.7,16.7,37.8,17.6,36.3.4-.7,10-28.9,21.3-62.7,13.3-39.6,21.5-62.6,23.1-64.7,5.5-7.1,8.3-7.9,45-12.3,27.7-3.3,26.9-3.3,31.9-2.1Z"/>
      <path class="cls-1" d="M939.47,295.94c-5.7,31.2-10.1,57-9.8,57.4.4.3,5.3-.1,10.9-1.1,5.7-.9,13.1-1.9,16.6-2.3l6.2-.6-.5-3.1c-.4-2.7-6.2-49.8-11.3-93.1l-1.7-14-10.4,56.8Z"/>
      <path class="cls-1" d="M416.67,283.64c-21.8,4.4-37.8,28.1-45,66.3-2.2,11.8-2.4,43.7-.4,54.7,4,21.9,10.3,36.2,20.6,46.6,8.4,8.6,14.7,11.4,25.3,11.4,8.8,0,15.2-3.1,22.4-10.9,25.8-27.9,33-105.8,13.4-146.1-7.9-16.2-22.1-24.8-36.3-22Z"/>
      <path class="cls-1" d="M1152.57,739.84c-5.7,31.3-10.2,57.2-9.9,57.4.3.3,8,.2,17.1-.2l16.7-.7-.5-3.6c-.3-2-3.3-27.4-6.7-56.6-3.3-29.1-6.1-53.1-6.2-53.2s-4.9,25.5-10.5,56.9Z"/>
      <path class="cls-1" d="M738.37,676.54l-4.5.6-.8,15c-1,18.1-1.4,167.1-.6,168,.4.3,4.7.9,9.5,1.2,16.9,1,30.5-3.7,41-14.1,7.3-7.4,11.3-14.2,15.4-26.3,5.9-17.6,7.4-30.5,7.5-60.8,0-28.5-.4-32.1-5.1-46.6-9.2-28.4-30.9-41.2-62.4-37Z"/>
    </g>
  </g>
</svg>