<?xml version="1.0" encoding="UTF-8"?>
<!DOCTYPE svg PUBLIC "-//W3C//DTD SVG 1.1//EN" "http://www.w3.org/Graphics/SVG/1.1/DTD/svg11.dtd">
<!-- Creator: CorelDRAW X7 -->
<svg xmlns="http://www.w3.org/2000/svg" xml:space="preserve" width="26.5688mm" height="23.9072mm" version="1.1" style="shape-rendering:geometricPrecision; text-rendering:geometricPrecision; image-rendering:optimizeQuality; fill-rule:evenodd; clip-rule:evenodd"
viewBox="0 0 2657 2391"
 xmlns:xlink="http://www.w3.org/1999/xlink">
 <defs>
  <style type="text/css">
   <![CDATA[
    .fil0 {fill:#DC3F1C;fill-rule:nonzero}
    .fil1 {fill:#FEFEFE;fill-rule:nonzero}
   ]]>
  </style>
 </defs>
 <g id="Layer_x0020_1">
  <metadata id="CorelCorpID_0Corel-Layer"/>
  <g id="_2095657157792">
   <path class="fil0" d="M2274 3l-1980 261c-168,22 -294,166 -294,336l0 1012c0,187 152,338 339,338l1027 0 0 441 568 -441 384 0c187,0 339,-151 339,-338l0 -1273c0,-205 -180,-363 -383,-336z"/>
   <path class="fil1" d="M269 949c34,10 78,14 102,12 111,-7 172,-83 172,-229 0,-92 -58,-135 -111,-207 -13,-16 -25,-39 -25,-64 0,-20 14,-29 28,-28 16,8 33,16 49,25 0,0 3,0 5,0 15,-1 69,-132 69,-143 0,-9 -5,-9 -10,-12 -36,-27 -69,-26 -114,-21 -80,10 -174,90 -174,206 0,46 8,88 34,120 43,53 107,117 107,158 0,11 -10,17 -18,17 -29,3 -53,-18 -81,-16 -9,1 -14,5 -17,18 -14,50 -32,135 -31,140 0,15 3,21 15,24zm527 -9c140,-9 216,-192 216,-381 0,-234 -109,-330 -221,-317 -115,14 -232,141 -232,349 0,223 83,360 237,349zm-6 -526c64,-7 94,77 94,167 0,99 -34,201 -93,206 -70,6 -105,-84 -105,-175 0,-93 36,-191 104,-198zm647 452c-13,-55 -27,-110 -40,-165 -25,17 -50,26 -74,28 -73,6 -134,-54 -134,-173 0,-101 49,-190 126,-198 6,-1 13,-2 19,-3 12,-1 66,6 76,4 10,-2 23,-93 27,-173 -50,-20 -102,-14 -145,-9 -164,20 -250,210 -250,399 0,298 219,403 395,290zm118 -713c-8,1 -81,12 -81,33 0,113 0,227 0,341 0,113 0,227 0,340 0,15 36,22 72,20 33,-2 65,-13 67,-33 9,-73 9,-148 9,-222 0,-85 0,-170 0,-255 0,-27 -2,-155 -3,-183 -3,-48 -36,-44 -64,-41zm97 702c0,22 22,24 42,23 13,-1 35,0 41,-1 29,-2 63,-6 74,-52 7,-29 9,-84 15,-109 0,-2 2,-6 3,-6 86,-12 101,-13 104,-8 3,36 3,73 9,109 8,50 23,55 49,54 8,-1 16,-2 24,-2 31,-2 32,-2 63,-9 13,-3 39,-20 35,-42 -19,-96 -38,-192 -56,-288 -19,-96 -38,-191 -57,-287 -15,-78 -30,-126 -90,-119 -40,5 -94,15 -108,77 -25,109 -49,218 -74,327 -24,108 -49,216 -73,323 0,1 -1,8 -1,10zm239 -534c10,77 19,154 28,231 -26,1 -50,7 -72,9 15,-80 30,-160 44,-240zm274 513c53,1 107,2 160,-3 18,-2 62,-11 62,-13 1,-3 2,-6 3,-10 0,-46 0,-92 0,-138 0,-9 -10,-19 -15,-19 -22,2 -43,4 -65,5 -9,1 -10,-41 -10,-86 0,-79 2,-158 4,-236 1,-79 3,-157 3,-237 0,-6 0,-23 0,-23 -1,-2 -2,-3 -3,-5 -18,0 -89,2 -99,4 -1,1 -41,-12 -43,49 -3,115 -6,230 -10,344 -3,114 -7,229 -10,343 -1,14 15,24 23,25zm-2065 476c0,25 0,97 0,103 2,97 10,343 11,352 2,11 4,21 6,32 0,1 37,2 53,2 29,0 63,-5 70,-38 0,-117 -2,-217 -2,-327 29,65 59,131 89,197 6,14 16,30 30,30 14,0 56,-94 85,-160 3,-7 6,-14 9,-21 3,-8 27,-75 31,-83 1,-4 3,-8 5,-12 3,125 6,250 9,375 0,23 21,27 39,27 10,0 19,-1 24,-1 7,0 78,-1 80,-15 1,-10 2,-20 3,-31 -2,-97 -4,-194 -6,-292 -2,-97 -2,-194 -5,-291 -1,-31 -23,-30 -42,-29 -6,1 -74,9 -110,14 -15,2 -30,14 -36,32 -28,85 -57,169 -85,253 -35,-57 -102,-268 -137,-271 -35,-4 -51,3 -81,8 -25,4 -38,9 -40,42 -1,16 0,87 0,104zm698 494c4,-1 8,-1 12,-1 30,0 59,-9 92,-9 11,0 23,-2 25,-18 7,-55 7,-121 7,-183 0,-32 0,-63 -1,-92 54,-130 107,-262 161,-394 0,-5 0,-9 0,-14 -35,-7 -81,-11 -121,-3 -6,1 -28,4 -31,5 -13,4 -22,37 -24,45 -20,75 -41,151 -61,225 -17,-85 -33,-170 -51,-254 -3,-16 -15,-17 -22,-16 -2,0 -4,0 -6,0 -27,2 -120,7 -127,28 20,64 45,131 70,198 25,67 49,134 68,199 1,40 5,260 5,277 1,0 3,6 4,7zm398 -719c-8,1 -81,7 -81,27 0,111 0,222 0,332 0,111 0,221 0,332 0,14 36,24 72,24 33,0 66,-9 68,-28 8,-71 9,-143 9,-215 0,-83 0,-166 0,-249 0,-26 -2,-151 -4,-178 -3,-48 -36,-46 -64,-45zm116 676c2,27 34,25 49,26 135,11 208,15 270,-49 79,-80 96,-193 96,-324 0,-101 -13,-207 -70,-273 -32,-38 -56,-64 -98,-77 -34,-11 -70,-12 -107,-10 -41,2 -73,6 -119,8 -10,6 -18,16 -25,28 0,130 0,260 0,391 0,91 -4,177 4,280zm131 -531c10,0 19,-1 29,-1 82,-3 122,58 122,165 0,141 -32,238 -156,219 0,-29 0,-59 0,-88 0,-94 -1,-190 5,-295zm335 564c39,2 77,9 115,9 58,0 115,-10 173,-10 1,-1 2,-2 3,-4 0,-1 7,-78 7,-104 0,-13 0,-26 0,-40 -1,-4 -5,-5 -8,-8 -46,4 -77,4 -100,4 -39,1 -46,-1 -46,-3 1,-50 3,-101 4,-152 0,0 1,0 2,0 21,0 40,9 61,9 7,0 14,0 21,-1 13,-8 15,-47 15,-82 0,-17 -1,-33 -1,-44 0,-9 0,-18 0,-27 -6,-17 -30,-20 -55,-19 -15,0 -29,2 -40,3 -7,0 -14,0 -18,-2 0,-1 0,-2 0,-3 0,-14 -1,-78 -1,-104 0,-3 0,-6 0,-10 50,-3 100,-6 150,-9 8,0 15,-58 15,-74 0,-27 0,-53 0,-80 -28,-25 -208,-9 -278,-3 -6,0 -12,0 -18,1 -5,1 -11,78 -12,86 -6,52 -7,130 -7,202 0,7 0,13 0,20 0,81 2,158 2,203 0,23 0,46 0,69 0,39 -5,163 16,173zm317 -20c0,23 22,26 42,26 12,0 34,2 40,2 29,0 63,-2 74,-49 8,-29 9,-85 15,-111 1,-2 2,-5 3,-6 87,-6 101,-7 104,-1 3,38 3,76 9,113 9,53 23,59 49,59 9,0 17,0 25,0 31,0 32,0 62,-5 14,-2 40,-18 36,-41 -19,-100 -38,-201 -57,-301 -19,-100 -37,-200 -56,-299 -15,-82 -30,-134 -90,-130 -40,2 -95,9 -108,71 -25,112 -50,223 -74,333 -24,110 -49,219 -73,328 0,2 -1,8 -1,11zm239 -534c9,80 18,160 28,240 -27,-2 -50,3 -72,4 14,-81 29,-163 44,-244z"/>
  </g>
 </g>
</svg>
